<mxfile host="cb48463b-1526-40b8-b3c1-d94913c0db7a" modified="2020-09-15T06:59:35.816Z" agent="5.0 (Macintosh; Intel Mac OS X 10_15_6) AppleWebKit/537.36 (KHTML, like Gecko) Code/1.49.0 Chrome/83.0.4103.122 Electron/9.2.1 Safari/537.36" etag="U7CJQV8yhJjZBk-myjDI" version="13.1.3">
    <diagram name=" 创建结构" id="vOncwjSykvjLEZPpO_hH">
        <mxGraphModel dx="1122" dy="561" grid="1" gridSize="10" guides="1" tooltips="1" connect="1" arrows="1" fold="1" page="1" pageScale="1" pageWidth="827" pageHeight="1169" math="0" shadow="0">
            <root>
                <mxCell id="f7IRk7dsRdej3k670oUi-0"/>
                <mxCell id="f7IRk7dsRdej3k670oUi-1" parent="f7IRk7dsRdej3k670oUi-0"/>
                <mxCell id="f7IRk7dsRdej3k670oUi-2" value="new" style="edgeStyle=orthogonalEdgeStyle;rounded=0;orthogonalLoop=1;jettySize=auto;html=1;entryX=0.5;entryY=0;entryDx=0;entryDy=0;exitX=0.5;exitY=1;exitDx=0;exitDy=0;" parent="f7IRk7dsRdej3k670oUi-1" source="f7IRk7dsRdej3k670oUi-3" target="f7IRk7dsRdej3k670oUi-12" edge="1">
                    <mxGeometry relative="1" as="geometry">
                        <mxPoint x="210" y="430" as="sourcePoint"/>
                    </mxGeometry>
                </mxCell>
                <mxCell id="f7IRk7dsRdej3k670oUi-3" value="main" style="ellipse;whiteSpace=wrap;html=1;aspect=fixed;align=center;" parent="f7IRk7dsRdej3k670oUi-1" vertex="1">
                    <mxGeometry x="374" y="280" width="80" height="80" as="geometry"/>
                </mxCell>
                <mxCell id="f7IRk7dsRdej3k670oUi-4" value="RPCPeer" style="rounded=0;whiteSpace=wrap;html=1;align=center;" parent="f7IRk7dsRdej3k670oUi-1" vertex="1">
                    <mxGeometry x="79" y="700" width="120" height="60" as="geometry"/>
                </mxCell>
                <mxCell id="f7IRk7dsRdej3k670oUi-5" value="&lt;span&gt;taskA.worker&lt;/span&gt;" style="rounded=1;whiteSpace=wrap;html=1;align=center;" parent="f7IRk7dsRdej3k670oUi-1" vertex="1">
                    <mxGeometry x="79" y="630" width="120" height="60" as="geometry"/>
                </mxCell>
                <mxCell id="f7IRk7dsRdej3k670oUi-6" value="&lt;span&gt;taskB.worker&lt;/span&gt;" style="rounded=1;whiteSpace=wrap;html=1;align=center;" parent="f7IRk7dsRdej3k670oUi-1" vertex="1">
                    <mxGeometry x="353" y="630" width="120" height="60" as="geometry"/>
                </mxCell>
                <mxCell id="f7IRk7dsRdej3k670oUi-7" value="RPCPeer" style="rounded=0;whiteSpace=wrap;html=1;align=center;" parent="f7IRk7dsRdej3k670oUi-1" vertex="1">
                    <mxGeometry x="353" y="700" width="120" height="60" as="geometry"/>
                </mxCell>
                <mxCell id="f7IRk7dsRdej3k670oUi-8" value="RPCPeer" style="rounded=0;whiteSpace=wrap;html=1;align=center;" parent="f7IRk7dsRdej3k670oUi-1" vertex="1">
                    <mxGeometry x="629" y="700" width="120" height="60" as="geometry"/>
                </mxCell>
                <mxCell id="f7IRk7dsRdej3k670oUi-9" value="&lt;span&gt;taskC.worker&lt;/span&gt;" style="rounded=1;whiteSpace=wrap;html=1;align=center;" parent="f7IRk7dsRdej3k670oUi-1" vertex="1">
                    <mxGeometry x="629" y="630" width="120" height="60" as="geometry"/>
                </mxCell>
                <mxCell id="f7IRk7dsRdej3k670oUi-10" style="edgeStyle=orthogonalEdgeStyle;rounded=0;orthogonalLoop=1;jettySize=auto;html=1;entryX=0.5;entryY=0;entryDx=0;entryDy=0;exitX=0.5;exitY=1;exitDx=0;exitDy=0;" parent="f7IRk7dsRdej3k670oUi-1" source="f7IRk7dsRdej3k670oUi-12" target="f7IRk7dsRdej3k670oUi-6" edge="1">
                    <mxGeometry relative="1" as="geometry">
                        <mxPoint x="414" y="610" as="targetPoint"/>
                        <mxPoint x="230" y="190" as="sourcePoint"/>
                    </mxGeometry>
                </mxCell>
                <mxCell id="f7IRk7dsRdej3k670oUi-11" value="new" style="edgeLabel;html=1;align=center;verticalAlign=middle;resizable=0;points=[];" parent="f7IRk7dsRdej3k670oUi-10" vertex="1" connectable="0">
                    <mxGeometry x="0.2091" y="1" relative="1" as="geometry">
                        <mxPoint x="-0.050000000000000044" y="4.600000000000001" as="offset"/>
                    </mxGeometry>
                </mxCell>
                <mxCell id="468uHudpnJpQwAChF9pr-0" style="edgeStyle=orthogonalEdgeStyle;rounded=0;orthogonalLoop=1;jettySize=auto;html=1;entryX=0.5;entryY=0;entryDx=0;entryDy=0;exitX=0.5;exitY=1;exitDx=0;exitDy=0;" parent="f7IRk7dsRdej3k670oUi-1" source="f7IRk7dsRdej3k670oUi-12" target="f7IRk7dsRdej3k670oUi-9" edge="1">
                    <mxGeometry relative="1" as="geometry">
                        <mxPoint x="460" y="580" as="sourcePoint"/>
                        <Array as="points">
                            <mxPoint x="413" y="570"/>
                            <mxPoint x="689" y="570"/>
                        </Array>
                    </mxGeometry>
                </mxCell>
                <mxCell id="468uHudpnJpQwAChF9pr-3" value="new" style="edgeLabel;html=1;align=center;verticalAlign=middle;resizable=0;points=[];" parent="468uHudpnJpQwAChF9pr-0" vertex="1" connectable="0">
                    <mxGeometry x="0.695" y="2" relative="1" as="geometry">
                        <mxPoint x="-113.03999999999999" y="-6" as="offset"/>
                    </mxGeometry>
                </mxCell>
                <mxCell id="468uHudpnJpQwAChF9pr-1" style="edgeStyle=orthogonalEdgeStyle;rounded=0;orthogonalLoop=1;jettySize=auto;html=1;entryX=0.5;entryY=0;entryDx=0;entryDy=0;exitX=0.5;exitY=1;exitDx=0;exitDy=0;" parent="f7IRk7dsRdej3k670oUi-1" source="f7IRk7dsRdej3k670oUi-12" target="f7IRk7dsRdej3k670oUi-5" edge="1">
                    <mxGeometry relative="1" as="geometry">
                        <mxPoint x="230" y="-20" as="sourcePoint"/>
                        <Array as="points">
                            <mxPoint x="413" y="570"/>
                            <mxPoint x="139" y="570"/>
                        </Array>
                    </mxGeometry>
                </mxCell>
                <mxCell id="468uHudpnJpQwAChF9pr-2" value="new" style="edgeLabel;html=1;align=center;verticalAlign=middle;resizable=0;points=[];" parent="468uHudpnJpQwAChF9pr-1" vertex="1" connectable="0">
                    <mxGeometry x="0.7183" y="1" relative="1" as="geometry">
                        <mxPoint x="76.96000000000001" y="-10.73" as="offset"/>
                    </mxGeometry>
                </mxCell>
                <mxCell id="f7IRk7dsRdej3k670oUi-12" value="foreman.worker" style="rounded=1;whiteSpace=wrap;html=1;align=center;" parent="f7IRk7dsRdej3k670oUi-1" vertex="1">
                    <mxGeometry x="353" y="480" width="120" height="60" as="geometry"/>
                </mxCell>
                <mxCell id="f7IRk7dsRdej3k670oUi-13" value="RPCPeer" style="rounded=0;whiteSpace=wrap;html=1;align=center;" parent="f7IRk7dsRdej3k670oUi-1" vertex="1">
                    <mxGeometry x="480" y="480" width="120" height="60" as="geometry"/>
                </mxCell>
                <mxCell id="EO4_N59q5k_WsvdqyIVr-0" value="" style="shape=link;html=1;exitX=0.25;exitY=0;exitDx=0;exitDy=0;entryX=0.25;entryY=1;entryDx=0;entryDy=0;fillColor=#60a917;strokeColor=#2D7600;" parent="f7IRk7dsRdej3k670oUi-1" source="f7IRk7dsRdej3k670oUi-5" target="f7IRk7dsRdej3k670oUi-12" edge="1">
                    <mxGeometry width="50" height="50" relative="1" as="geometry">
                        <mxPoint x="330" y="450" as="sourcePoint"/>
                        <mxPoint x="380" y="400" as="targetPoint"/>
                    </mxGeometry>
                </mxCell>
                <mxCell id="EO4_N59q5k_WsvdqyIVr-1" value="" style="shape=link;html=1;exitX=0.25;exitY=0;exitDx=0;exitDy=0;entryX=0.25;entryY=1;entryDx=0;entryDy=0;fillColor=#60a917;strokeColor=#2D7600;" parent="f7IRk7dsRdej3k670oUi-1" source="f7IRk7dsRdej3k670oUi-6" target="f7IRk7dsRdej3k670oUi-12" edge="1">
                    <mxGeometry width="50" height="50" relative="1" as="geometry">
                        <mxPoint x="330" y="450" as="sourcePoint"/>
                        <mxPoint x="380" y="400" as="targetPoint"/>
                    </mxGeometry>
                </mxCell>
                <mxCell id="EO4_N59q5k_WsvdqyIVr-2" value="" style="shape=link;html=1;entryX=0.75;entryY=1;entryDx=0;entryDy=0;exitX=0.25;exitY=0;exitDx=0;exitDy=0;fillColor=#60a917;strokeColor=#2D7600;" parent="f7IRk7dsRdej3k670oUi-1" source="f7IRk7dsRdej3k670oUi-9" target="f7IRk7dsRdej3k670oUi-12" edge="1">
                    <mxGeometry width="50" height="50" relative="1" as="geometry">
                        <mxPoint x="330" y="450" as="sourcePoint"/>
                        <mxPoint x="380" y="400" as="targetPoint"/>
                    </mxGeometry>
                </mxCell>
                <mxCell id="EO4_N59q5k_WsvdqyIVr-5" value="" style="shape=link;html=1;fillColor=#60a917;strokeColor=#2D7600;" parent="f7IRk7dsRdej3k670oUi-1" edge="1">
                    <mxGeometry width="50" height="50" relative="1" as="geometry">
                        <mxPoint x="90" y="350" as="sourcePoint"/>
                        <mxPoint x="180" y="350" as="targetPoint"/>
                    </mxGeometry>
                </mxCell>
                <mxCell id="EO4_N59q5k_WsvdqyIVr-6" value="MessagePort" style="text;html=1;strokeColor=none;fillColor=none;align=center;verticalAlign=middle;whiteSpace=wrap;rounded=0;shadow=0;glass=0;comic=0;" parent="f7IRk7dsRdej3k670oUi-1" vertex="1">
                    <mxGeometry x="190" y="320" width="81" height="50" as="geometry"/>
                </mxCell>
                <mxCell id="0" value="RPCPeer" style="rounded=0;whiteSpace=wrap;html=1;align=center;" parent="f7IRk7dsRdej3k670oUi-1" vertex="1">
                    <mxGeometry x="480" y="290" width="120" height="60" as="geometry"/>
                </mxCell>
                <mxCell id="1" value="" style="shape=link;html=1;exitX=0.25;exitY=0;exitDx=0;exitDy=0;entryX=0;entryY=1;entryDx=0;entryDy=0;fillColor=#60a917;strokeColor=#2D7600;" parent="f7IRk7dsRdej3k670oUi-1" source="f7IRk7dsRdej3k670oUi-12" target="f7IRk7dsRdej3k670oUi-3" edge="1">
                    <mxGeometry width="50" height="50" relative="1" as="geometry">
                        <mxPoint x="-60" y="380" as="sourcePoint"/>
                        <mxPoint x="215" y="140" as="targetPoint"/>
                    </mxGeometry>
                </mxCell>
            </root>
        </mxGraphModel>
    </diagram>
</mxfile>